<svg height="800" viewBox="0 0 1024 1024" width="800" xmlns="http://www.w3.org/2000/svg"><path d="m32 512a480 480 0 1 0 960 0 480 480 0 1 0 -960 0z" fill="#fee8eb"/><path d="m601.6 473.6c-57.6-64-57.6-140.8-57.6-249.6-179.2 70.4-134.4 262.4-140.8 326.4-44.8-38.4-57.6-128-57.6-128-51.2 25.6-76.8 89.6-76.8 140.8 0 128 108.8 236.8 243.2 236.8s243.2-102.4 243.2-236.8c0-76.8-57.6-115.2-57.6-217.6-83.2 25.6-96 89.6-96 128z" fill="#ff6b6a"/><path d="m505.6 537.6c83.2 32 64 121.6 64 147.2 19.2-19.2 25.6-57.6 25.6-57.6 19.2 12.8 32 38.4 32 64 0 57.6-51.2 108.8-108.8 108.8s-108.8-51.2-108.8-108.8c6.4-57.6 96-102.4 96-153.6z" fill="#ffa9b1"/></svg>